<svg width="820" height="180" viewBox="0 0 820 180" fill="none" xmlns="http://www.w3.org/2000/svg">
  <rect width="820" height="180" rx="24" fill="#F6FAF7"/>
  <g transform="translate(48 38)">
    <rect width="104" height="104" rx="22" fill="#07966A"/>
    <path d="M39 27h19.5a18 18 0 0 1 14.07 29.21L83 66.67 75.24 74.43 64.79 63.98A18 18 0 0 1 39 49.88V27Z" fill="#FFFFFF"/>
    <path d="M48 36h10.2a8.58 8.58 0 1 1 0 17.16H48V36Z" fill="#07966A"/>
    <path d="M32.5 33.5H24v8.5h8.5v-8.5ZM32.5 63H24v8.5h8.5V63ZM55.5 77.5H47V86h8.5v-8.5Z" fill="#DDF8EC"/>
    <path d="M32.5 37.75H39M28.25 42v21M32.5 67.25H47M51.25 71.5v6" stroke="#DDF8EC" stroke-width="5" stroke-linecap="round"/>
  </g>
  <text x="184" y="83" fill="#102018" font-family="Arial, Helvetica, sans-serif" font-size="42" font-weight="700">Agent Search Console</text>
  <text x="186" y="123" fill="#54675D" font-family="Arial, Helvetica, sans-serif" font-size="24" font-weight="500">SEO for the Agentic Web</text>
</svg>
